<svg xmlns="http://www.w3.org/2000/svg" viewBox="0 0 154.66 38.33"><title>lockup_small</title><g id="Layer_2" data-name="Layer 2"><g id="Layer_1-2" data-name="Layer 1"><path d="M34.13 12.57c-.19-2.17 1.51-6.52 1.51-6.52L34 4.66l.76-1.92L32 0H5.19L2.46 2.74l.76 1.92-1.64 1.39s1.71 4.35 1.52 6.52-4.81 9-2.4 14.36c3.55 7.91 17.92 8.81 17.92 11.41 0-2.6 14.37-3.5 17.92-11.41 2.4-5.35-2.21-12.18-2.41-14.36zM31.84.48l2.37 2.37-.64 1.63-.13.32.26.2 1.38 1.2c-.4 1.07-1.59 4.49-1.42 6.41a12.49 12.49 0 0 0 1 2.94l.36.89H18.86V.48zM3.58 12.61c.17-1.93-1-5.35-1.42-6.41L3.53 5l.26-.22-.13-.32L3 2.85 5.39.48h13v16H2.22l.36-.89a12.49 12.49 0 0 0 1-2.98zm10.25 22.53c-4.47-1.57-10.6-3.73-12.7-8.41-1.41-3.14-.24-6.91.9-9.81h16.34v20.19a18.56 18.56 0 0 0-4.54-1.97zm22.27-8.41c-2.1 4.68-8.23 6.83-12.7 8.41a18.56 18.56 0 0 0-4.54 2V16.92H35.2c1.14 2.9 2.31 6.67.9 9.81z" fill="#fff"/><path d="M5.39 14.24h.89l4.33-11.56h.55l4.34 11.56h.89v.45h-2.56v-.45H15l-1.17-3.14H7.94l-1.18 3.14h1.18v.45H5.39zm2.71-3.59h5.56l-2.52-6.76-.23-.68-.22.68zM14.78 22.66h-.46v-1.93a3.9 3.9 0 0 0-1.48-1.18 4.86 4.86 0 0 0-2.11-.44 4.38 4.38 0 0 0-3.48 1.56 6 6 0 0 0-1.34 4.08v.16A6.09 6.09 0 0 0 7.24 29a4.28 4.28 0 0 0 3.41 1.56 5.15 5.15 0 0 0 2.16-.44 3.77 3.77 0 0 0 1.51-1.18V27h.46v2.1a4.1 4.1 0 0 1-1.7 1.39 5.69 5.69 0 0 1-2.43.51 4.69 4.69 0 0 1-3.74-1.69 6.54 6.54 0 0 1-1.45-4.41v-.15a6.51 6.51 0 0 1 1.46-4.41 4.8 4.8 0 0 1 3.82-1.69 5.4 5.4 0 0 1 2.37.51 4.21 4.21 0 0 1 1.68 1.39zM27.83 11h2.09v.44h-2.09v2.83h1.35v.45H26v-.45h1.35v-2.86h-5.81v-.25l5.75-8.48h.54zm-5.6 0h5.15V3.31l-.65 1.06zM22.44 30.06h7.13v-1.88H30v2.3h-8.14v-.35l7.3-10.68h-6.57v1.89h-.42V19h7.57v.3z" fill="#fff"/><path d="M44.75 23.89l1.06-.08L51 10.28h1.12l5.09 13.52 1.08.08v.88h-3.6v-.87l1.26-.1-1.19-3.24h-6.5L47 23.79l1.26.1v.88h-3.51zm3.9-4.41h5.72l-2.81-7.66h-.06zM59.07 14.89V14h2.62l.15 1.67a3.76 3.76 0 0 1 3.39-1.87 3.51 3.51 0 0 1 3 1.55 7 7 0 0 1 1.09 4.12v.21a6.21 6.21 0 0 1-1.09 3.85 3.58 3.58 0 0 1-3 1.44 4.32 4.32 0 0 1-2-.43 3.63 3.63 0 0 1-1.39-1.23v4.57l1.66.12v.88h-4.43V28l1.62-.13V15zm9.09 4.58a6.17 6.17 0 0 0-.82-3.34A2.65 2.65 0 0 0 65 14.84a3.14 3.14 0 0 0-2 .57 3.51 3.51 0 0 0-1.13 1.49v5.17a3.25 3.25 0 0 0 1.18 1.39A3.43 3.43 0 0 0 65 24a2.7 2.7 0 0 0 2.37-1.17 5.38 5.38 0 0 0 .81-3.11zM70.54 14.89V14h2.62l.15 1.67a3.76 3.76 0 0 1 3.39-1.87 3.51 3.51 0 0 1 3 1.55 7 7 0 0 1 1.09 4.12v.21a6.21 6.21 0 0 1-1.09 3.85 3.58 3.58 0 0 1-3 1.44 4.32 4.32 0 0 1-2-.43 3.63 3.63 0 0 1-1.39-1.23v4.57L75 28v.88h-4.46V28l1.62-.13V15zm9.09 4.58a6.17 6.17 0 0 0-.82-3.34 2.65 2.65 0 0 0-2.39-1.29 3.14 3.14 0 0 0-2 .57 3.51 3.51 0 0 0-1.13 1.49v5.17a3.25 3.25 0 0 0 1.18 1.39 3.43 3.43 0 0 0 1.92.51 2.7 2.7 0 0 0 2.37-1.17 5.38 5.38 0 0 0 .81-3.11zM90.42 17.32h-1l-.12-1.52a3 3 0 0 0-1.13-.73 4.38 4.38 0 0 0-1.57-.26 2.93 2.93 0 0 0-2 .56 1.69 1.69 0 0 0-.6 1.33 1.56 1.56 0 0 0 .56 1.23 5.46 5.46 0 0 0 2.24.86A7.34 7.34 0 0 1 89.68 20a2.41 2.41 0 0 1 1 2 2.61 2.61 0 0 1-1.09 2.17 4.63 4.63 0 0 1-2.88.83 6.73 6.73 0 0 1-2.17-.33 5.17 5.17 0 0 1-1.7-.94v-2.2h1l.17 1.53a2.77 2.77 0 0 0 1.21.69 5.41 5.41 0 0 0 1.53.21 3.29 3.29 0 0 0 2-.57 1.68 1.68 0 0 0 .7-1.39 1.74 1.74 0 0 0-.62-1.32 5 5 0 0 0-2.24-.92 7.57 7.57 0 0 1-2.85-1.11 2.27 2.27 0 0 1-.93-1.93 2.6 2.6 0 0 1 1-2.08 4.23 4.23 0 0 1 2.75-.85 6.17 6.17 0 0 1 2.16.36 4.36 4.36 0 0 1 1.6 1zM100.46 20.1h2.27v1h-2.27v2.66l1.62.13v.88h-4.42v-.87l1.62-.13V21.1H92.5v-.68l6.66-10.14h1.3zm-6.55 0h5.37v-8.26h-.06l-.51 1.08zM115.77 14.82h-.92l-.17-2.2a4.19 4.19 0 0 0-1.5-1.11 5.09 5.09 0 0 0-2.14-.42 4.71 4.71 0 0 0-3.86 1.76 7 7 0 0 0-1.43 4.56v.21a7.1 7.1 0 0 0 1.42 4.57 4.53 4.53 0 0 0 3.71 1.81 5.59 5.59 0 0 0 2.22-.43 4.1 4.1 0 0 0 1.57-1.1l.17-2.2h.92v2.55a5.1 5.1 0 0 1-2 1.56 6.6 6.6 0 0 1-2.91.63 5.72 5.72 0 0 1-4.55-2.06 7.83 7.83 0 0 1-1.77-5.29v-.19a7.86 7.86 0 0 1 1.76-5.29 5.79 5.79 0 0 1 4.62-2.06 6.37 6.37 0 0 1 2.88.63 5.19 5.19 0 0 1 1.94 1.57zM117.36 10.13v-.88h2.8v14.51l1.62.13v.88h-4.42v-.87l1.62-.13V10.26zM131 23a3.66 3.66 0 0 1-1.39 1.46 4 4 0 0 1-2.07.52 3.27 3.27 0 0 1-2.66-1.15 5.53 5.53 0 0 1-1-3.58V15l-1.33-.13V14h2.52v6.25a4.62 4.62 0 0 0 .67 2.82 2.28 2.28 0 0 0 1.9.86 3.52 3.52 0 0 0 2.15-.6 3.17 3.17 0 0 0 1.13-1.65V15l-1.53-.13V14h2.72v9.75l1.44.13v.88h-2.49zM144.31 19.68a6.21 6.21 0 0 1-1.09 3.85 3.58 3.58 0 0 1-3 1.44 4.15 4.15 0 0 1-2-.47 3.64 3.64 0 0 1-1.38-1.36l-.13 1.62h-1v-14.5l-1.71-.13v-.88h2.8v6.44a3.68 3.68 0 0 1 3.36-1.89 3.51 3.51 0 0 1 3 1.55 7 7 0 0 1 1.09 4.12zm-1.2-.21a6.29 6.29 0 0 0-.8-3.35 2.59 2.59 0 0 0-2.31-1.28 3.1 3.1 0 0 0-2 .62 3.67 3.67 0 0 0-1.18 1.54v4.9a3.22 3.22 0 0 0 3.16 2 2.64 2.64 0 0 0 2.34-1.15 5.43 5.43 0 0 0 .79-3.1zM147.66 23.76h5.85l.09-2h1.06v3h-8.46v-.87l6.48-8.89h-5.31l-.08 2h-1.06v-3h8v.88z"/></g></g></svg>