<svg xmlns="http://www.w3.org/2000/svg" viewBox="0 0 422.82 431.4"><title>logo</title><g id="Layer_2" data-name="Layer 2"><g id="Layer_1-2" data-name="Layer 1" fill="#37b34a"><path d="M24.29 226c3.73 3.08 9.57 8.94 11.47 16.59C38.11 252 35.73 261 34 264c-3-1.81-9.65-8.28-12.07-18-1.9-7.66.52-15.56 2.37-20m-1.36-5.49s-7.77 13.24-4.5 26.39 13.41 21.22 16.29 21.22a1.06 1.06 0 0 0 .24 0c2.86-.78 7.43-13.57 4.26-26.36-3.23-13.21-16.3-21.29-16.3-21.29zM55 262.1c1.69 4.54 3.81 12.52 1.63 20.1-2.75 9.55-9.33 15.91-12.27 17.68-1.71-3.1-4.2-12-1.43-21.62C45.14 270.68 51.18 265 55 262.1m1.56-5.44s-13.35 7.59-17.09 20.6 1 25.18 3.53 26.53a1.27 1.27 0 0 0 .61.13 2.79 2.79 0 0 0 .73-.11c3.82-1 12.49-9.28 15.75-20.63 3.75-13-3.53-26.53-3.53-26.53zM3.93 275.32c4.77.81 12.75 3 18.22 8.64 6.63 6.88 9.13 15.93 9.2 19.44-4.16-.1-12.88-2.72-19.46-9.55-5.47-5.68-7.33-13.73-8-18.53M0 271.24s-.1 15.35 9.3 25.11C16.89 304.22 26.79 307 31.58 307a7.31 7.31 0 0 0 1.86-.2 2.26 2.26 0 0 0 .6-.24c2.41-1.48.1-15.35-9.3-25.11S0 271.24 0 271.24zM63.89 298.75c2.32 4.23 5.55 11.81 4.47 19.67-1.34 9.69-6.9 17.15-9.59 19.29-2.13-2.79-5.89-11.27-4.52-21.23 1.08-7.82 6.27-14.27 9.65-17.73m.77-5.6s-12.13 9.41-14 22.83 4.63 24.78 7.28 25.76a1.11 1.11 0 0 0 .39.06 1.91 1.91 0 0 0 .5-.07c3.43-.93 11.41-10.63 13.09-22.82 1.85-13.41-7.27-25.76-7.27-25.76zM15.19 319.12c4.89.11 13 1.11 19.27 6C42 330.94 45.77 339.54 46.34 343a14.7 14.7 0 0 1-1.75.09 32.36 32.36 0 0 1-18.87-6.77c-6.23-4.84-9.22-12.55-10.53-17.21m-1-3.62a33.9 33.9 0 0 0-3.46.15s2.08 15.21 12.78 23.52a36 36 0 0 0 21.08 7.52 14.31 14.31 0 0 0 3.62-.39 3.45 3.45 0 0 0 1.25-.56c2.18-1.8-2.09-15.21-12.78-23.52-7.55-5.86-17.37-6.73-22.49-6.73zM79.37 327.51c3.25 3.57 8.17 10.18 9 18.07 1 9.71-2.67 18.24-4.82 21-2.73-2.23-8.37-9.58-9.37-19.57-.78-7.86 2.75-15.34 5.22-19.49m-.57-5.62s-9.58 12-8.24 25.47 10.31 23 13.12 23.34h.12a1.17 1.17 0 0 0 .31 0c3-.82 9.09-12.61 7.81-25.44-1.35-13.47-13.12-23.34-13.12-23.34zM45.53 357.76a27.58 27.58 0 0 1 11.4 2.24c8.87 4 14.43 11.39 15.76 14.64-.31.12-.7.24-1.17.37a27.48 27.48 0 0 1-7 .84A33.06 33.06 0 0 1 51.08 373c-7.19-3.25-11.91-10-14.27-14.27a42.08 42.08 0 0 1 8.73-1m0-3.6a46.1 46.1 0 0 0-11.8 1.61c-1.32.36-2.09.64-2.09.64s5.6 14.3 17.94 19.88a36.56 36.56 0 0 0 15 3.17 30.82 30.82 0 0 0 7.93-1c2-.55 3.4-1.25 3.88-1.9 1.69-2.27-5.59-14.3-17.94-19.87a31.32 31.32 0 0 0-12.88-2.56zM99.36 352.08c4.31 2.2 11.27 6.64 14.79 13.7 4.35 8.73 4 18 3 21.33-3.34-1.11-11.22-6-15.7-15-3.52-7.06-2.88-15.3-2-20.06M96.84 347s-4.7 14.61 1.34 26.74c5.72 11.48 16.57 17.22 20 17.22a2.14 2.14 0 0 0 .51-.05c2.73-.74 4.67-14.64-1.36-26.74S96.84 347 96.84 347zM88.54 390.37h1.38c9.55.58 17.52 5.57 19.93 8.1a27.74 27.74 0 0 1-10.27 5 32.94 32.94 0 0 1-8.58 1.22q-.94 0-1.91-.06c-7.88-.48-14.69-5.16-18.4-8.26a39.76 39.76 0 0 1 10.92-5 26.55 26.55 0 0 1 7-1m0-3.6a30.12 30.12 0 0 0-7.92 1.11A44.4 44.4 0 0 0 65 396s10.3 11.38 23.83 12.21q1.08.07 2.13.07a36.58 36.58 0 0 0 9.56-1.29c7.63-2.08 12.91-6.12 13.44-8 .78-2.72-10.3-11.38-23.82-12.21h-1.6zM126.38 367.31c4.79.68 12.82 2.61 18.45 8.14 6.94 6.82 9.61 15.67 9.73 19.18-4.22 0-13-2.4-19.68-9-5.62-5.53-7.7-13.53-8.46-18.3m-4-4s.31 15.35 10 24.84c7.61 7.48 17.29 10.05 22.21 10.05a8.32 8.32 0 0 0 2.11-.22 2.46 2.46 0 0 0 .69-.29c2.37-1.54-.31-15.35-10-24.84s-25-9.54-25-9.54zM139.06 405.41a29 29 0 0 1 12.36 2.4c-1.74 3.08-8 9.86-17.78 12.56a25 25 0 0 1-6.57.84 38.57 38.57 0 0 1-13.41-2.69c3-3.81 8.67-9.8 16.28-11.9h.1a34.2 34.2 0 0 1 9-1.17m0-3.6a37.92 37.92 0 0 0-9.93 1.29h-.16C115.92 406.76 108.2 420 108.2 420a43.8 43.8 0 0 0 18.87 4.78 28.59 28.59 0 0 0 7.52-1h.11c13.06-3.61 20.91-14.07 20.77-16.89-.11-2.08-7.37-5.12-16.41-5.12zM166.21 374.33a27.4 27.4 0 0 1 11.14 2.15c8.9 3.93 14.52 11.28 15.87 14.52-.34.13-.77.27-1.29.41a27.92 27.92 0 0 1-7.09.85 33.09 33.09 0 0 1-13.25-2.75c-7.22-3.19-12-10-14.38-14.15a41.41 41.41 0 0 1 9-1m0-3.6a45.91 45.91 0 0 0-11.77 1.62c-1.52.41-2.4.74-2.4.74s5.7 14.25 18.09 19.73a36.56 36.56 0 0 0 14.7 3.06 31.24 31.24 0 0 0 8-1c2.1-.57 3.54-1.31 4-2 1.68-2.27-5.7-14.26-18.09-19.73a31.12 31.12 0 0 0-12.59-2.46zM193.33 404.38a13.43 13.43 0 0 1 1.59.09c-.55 3.5-4 12-12.13 18a26.47 26.47 0 0 1-8.72 4.06 40.72 40.72 0 0 1-10.45 1.32h-.27c1.45-4.62 4.67-12.24 11-16.89a35.28 35.28 0 0 1 11.41-5.41 29.78 29.78 0 0 1 7.52-1.12m0-3.6a33.15 33.15 0 0 0-8.46 1.24 38.75 38.75 0 0 0-12.59 6c-10.94 8-13.48 23.13-13.48 23.13a37.61 37.61 0 0 0 4.84.27A44.05 44.05 0 0 0 175 430a30.09 30.09 0 0 0 9.9-4.63c10.94-8 14.61-20.54 13.48-23.13-.39-.89-2.29-1.42-5.07-1.42zM398.52 226c1.85 4.47 4.27 12.37 2.37 20-2.42 9.75-9.05 16.22-12.08 18-1.73-3-4.11-12-1.76-21.47 1.9-7.65 7.74-13.51 11.47-16.59m1.36-5.49s-13.06 8.07-16.33 21.22c-3.17 12.78 1.41 25.58 4.26 26.36a1.06 1.06 0 0 0 .24 0c2.88 0 13-8.13 16.29-21.22s-4.5-26.39-4.5-26.39zM367.8 262.09c3.83 2.93 9.87 8.55 12.06 16.17 2.77 9.63.28 18.53-1.43 21.62-2.92-1.76-9.52-8.13-12.27-17.69-2.18-7.58-.05-15.57 1.64-20.11m-1.57-5.43s-7.23 13.53-3.53 26.55c3.26 11.35 11.94 19.59 15.75 20.63a2.79 2.79 0 0 0 .73.11 1.27 1.27 0 0 0 .61-.13c2.49-1.35 7.28-13.52 3.53-26.53s-17.09-20.6-17.09-20.6zM418.9 275.31c-.62 4.79-2.47 12.82-8 18.53-6.58 6.83-15.3 9.45-19.46 9.55.07-3.51 2.57-12.56 9.2-19.44 5.48-5.68 13.46-7.83 18.23-8.64m3.92-4.07s-15.34.46-24.75 10.21-11.71 23.63-9.3 25.11a2.25 2.25 0 0 0 .6.24 7.32 7.32 0 0 0 1.86.2c4.8 0 14.69-2.78 22.29-10.65 9.4-9.75 9.3-25.11 9.3-25.11zM358.94 298.75c3.38 3.45 8.55 9.86 9.63 17.73 1.37 10-2.38 18.42-4.52 21.22-2.73-2.17-8.27-9.61-9.6-19.28-1.08-7.82 2.17-15.42 4.48-19.67m-.78-5.6s-9.13 12.34-7.27 25.76c1.68 12.2 9.66 21.89 13.09 22.82a1.91 1.91 0 0 0 .5.07 1.11 1.11 0 0 0 .39-.06c2.65-1 9.13-12.34 7.28-25.76s-14-22.83-14-22.83zM407.64 319.12c-1.29 4.65-4.27 12.34-10.54 17.21a32.36 32.36 0 0 1-18.87 6.76 14.67 14.67 0 0 1-1.75-.09c.57-3.46 4.33-12.06 11.88-17.92 6.24-4.85 14.39-5.84 19.28-6m1-3.62c-5.12 0-14.94.86-22.49 6.73-10.7 8.31-15 21.72-12.79 23.52a3.45 3.45 0 0 0 1.25.56 14.32 14.32 0 0 0 3.62.39 36 36 0 0 0 21.08-7.52c10.7-8.31 12.78-23.52 12.78-23.52a33.92 33.92 0 0 0-3.46-.15zM343.46 327.51c2.48 4.14 6 11.59 5.21 19.49-1 10-6.64 17.35-9.37 19.57-2.15-2.75-5.79-11.29-4.82-21 .79-7.85 5.73-14.49 9-18.07m.56-5.62s-11.77 9.86-13.12 23.34c-1.28 12.83 4.8 24.62 7.81 25.44a1.17 1.17 0 0 0 .31 0h.12c2.8-.34 11.77-9.86 13.12-23.34S344 321.89 344 321.89zM377.28 357.76a42.08 42.08 0 0 1 8.73 1c-2.36 4.22-7.08 11-14.27 14.27a33.06 33.06 0 0 1-13.47 2.85 27.48 27.48 0 0 1-7-.84c-.47-.13-.85-.25-1.17-.37 1.35-3.28 6.9-10.67 15.78-14.67a27.58 27.58 0 0 1 11.4-2.24m0-3.6a31.31 31.31 0 0 0-12.88 2.56c-12.35 5.57-19.64 17.61-17.94 19.87.48.65 1.87 1.35 3.88 1.9a30.84 30.84 0 0 0 7.93 1 36.56 36.56 0 0 0 15-3.17c12.35-5.58 17.94-19.88 17.94-19.88s-.76-.28-2.09-.64a46.1 46.1 0 0 0-11.8-1.61zM323.45 352.08c.84 4.77 1.48 13-2 20.06-4.48 9-12.36 13.87-15.7 15-1-3.33-1.4-12.6 3-21.34 3.52-7.06 10.48-11.5 14.79-13.7M326 347s-14.5 5-20.54 17.16-4.09 26-1.36 26.74a2.14 2.14 0 0 0 .51.05c3.47 0 14.31-5.74 20-17.22C330.68 361.63 326 347 326 347zM334.27 390.37a26.56 26.56 0 0 1 7 1 39.75 39.75 0 0 1 10.92 5c-3.69 3.11-10.49 7.78-18.41 8.26q-1 .06-1.91.06a32.94 32.94 0 0 1-8.61-1.17 27.75 27.75 0 0 1-10.28-5c2.41-2.53 10.38-7.52 19.93-8.1h1.38m0-3.6h-1.6c-13.52.83-24.61 9.48-23.82 12.21.54 1.86 5.81 5.9 13.44 8a36.58 36.58 0 0 0 9.56 1.29q1.05 0 2.13-.07c13.52-.82 23.83-12.21 23.83-12.21a44.39 44.39 0 0 0-15.62-8.15 30.12 30.12 0 0 0-7.92-1.11zM296.44 367.31c-.75 4.77-2.81 12.75-8.47 18.31-6.73 6.62-15.46 9-19.68 9 .12-3.51 2.79-12.36 9.73-19.18 5.63-5.53 13.67-7.47 18.46-8.15m4-4s-15.35 0-25 9.54-12.34 23.31-10 24.84a2.46 2.46 0 0 0 .69.29 8.33 8.33 0 0 0 2.11.22c4.92 0 14.6-2.57 22.21-10.05 9.66-9.49 10-24.84 10-24.84zM283.75 405.41a34.2 34.2 0 0 1 9 1.17h.14c7.61 2.11 13.3 8.1 16.28 11.91a38.4 38.4 0 0 1-13.42 2.68 25.2 25.2 0 0 1-6.67-.87c-9.66-2.67-15.94-9.46-17.68-12.53a29 29 0 0 1 12.36-2.4m0-3.6c-9 0-16.3 3-16.41 5.12-.15 2.82 7.71 13.27 20.77 16.89h.11a28.6 28.6 0 0 0 7.52 1 43.79 43.79 0 0 0 18.86-4.78s-7.71-13.27-20.77-16.89h-.16a37.93 37.93 0 0 0-9.93-1.29zM256.6 374.33a41.4 41.4 0 0 1 9 1c-2.38 4.2-7.12 10.94-14.39 14.15a33.08 33.08 0 0 1-13.21 2.79 27.91 27.91 0 0 1-7.1-.86c-.52-.14-.95-.28-1.29-.41 1.35-3.24 7-10.59 15.87-14.52a27.4 27.4 0 0 1 11.14-2.15m0-3.6a31.12 31.12 0 0 0-12.62 2.46c-12.39 5.48-19.77 17.46-18.09 19.73.49.66 1.92 1.4 4 2a31.25 31.25 0 0 0 8 1 36.55 36.55 0 0 0 14.7-3.06c12.39-5.48 18.09-19.73 18.09-19.73s-.88-.33-2.4-.74a45.92 45.92 0 0 0-11.77-1.62zM229.48 404.38a29.78 29.78 0 0 1 7.52 1.12 35.28 35.28 0 0 1 11.41 5.41c6.37 4.65 9.59 12.27 11 16.89h-.27a40.72 40.72 0 0 1-10.45-1.32 26.48 26.48 0 0 1-8.72-4.06c-8.09-5.91-11.57-14.45-12.13-18a13.48 13.48 0 0 1 1.59-.09m0-3.6c-2.78 0-4.68.54-5.07 1.42-1.13 2.59 2.54 15.14 13.48 23.13a30.1 30.1 0 0 0 9.9 4.63 44.06 44.06 0 0 0 11.39 1.45 37.6 37.6 0 0 0 4.84-.27S261.48 416 250.54 408a38.75 38.75 0 0 0-12.59-6 33.15 33.15 0 0 0-8.46-1.24zM327.38 180.53c-1.44-16.18 11.31-48.71 11.31-48.71l-12.18-10.44 5.65-14.38-20.44-20.4H111.09L90.65 107l5.65 14.35-12.17 10.48s12.74 32.52 11.31 48.71-35.94 67.3-18 107.31c26.55 59.1 133.94 65.81 133.94 85.23 0-19.42 107.39-26.14 133.94-85.23 18-40.02-16.5-91.04-17.94-107.32zm-17.15-90.32l17.71 17.71-4.79 12.15-.94 2.39 1.95 1.67 10.25 8.79c-3 8-11.91 33.55-10.63 47.93.45 5.12 3.52 12.57 7.41 22 .87 2.11 1.78 4.32 2.71 6.62H213.21V90.21zM99 180.85c1.28-14.39-7.67-40-10.63-47.93l10.25-8.79 1.95-1.67-.94-2.39-4.79-12.15 17.71-17.71h97v119.26H88.91c.93-2.3 1.84-4.51 2.71-6.62 3.89-9.43 6.95-16.85 7.38-22zm76.67 168.35c-33.43-11.77-79.2-27.88-94.91-62.84C70.22 262.9 79 234.7 87.49 213h122.12v150.9c-6.51-5.03-18.51-9.26-33.94-14.7zm166.39-62.84c-15.71 35-61.48 51.07-94.91 62.84-15.43 5.43-27.43 9.67-33.94 14.72V213h122.11c8.53 21.7 17.28 49.9 6.74 73.36z"/><path d="M112.55 193h6.62l32.41-86.37h4.08L188.14 193h6.62v3.33h-19.12V193h8.85l-8.85-23.47h-44L122.82 193h8.85v3.33h-19.12zm20.29-26.8h41.57l-18.87-50.51-1.73-5h-.37l-1.67 5zM182.76 255.9h-3.4v-14.41a29.15 29.15 0 0 0-11.07-8.84 36.3 36.3 0 0 0-15.77-3.29q-16 0-26 11.64t-10 30.49v1.23q0 18.91 10 30.58A32 32 0 0 0 151.9 315a38.47 38.47 0 0 0 16.1-3.32 28.19 28.19 0 0 0 11.32-8.84v-14.41h3.4v15.65A30.62 30.62 0 0 1 170 314.49a42.49 42.49 0 0 1-18.13 3.82q-17.13 0-28-12.66t-10.82-32.92v-1.11q0-20.33 10.89-33T152.52 226a40.37 40.37 0 0 1 17.72 3.82 31.46 31.46 0 0 1 12.52 10.41zM280.27 168.55h15.59v3.32h-15.59V193h10.08v3.33h-23.5V193h10.08v-21.13h-43.67V170l43-63.39h4zm-41.82 0h38.47v-57.23l-.37-.12-4.82 7.94zM240 311.21h53.31v-14h3.17v17.2h-60.85v-2.58L290.17 232h-49v14.09H238v-17.2h56.6v2.23zM233.82 41.55a3.48 3.48 0 0 0-.45-5l-1.49-1.27-.15-.15 2-2.38a3.48 3.48 0 0 0-.45-5l-1.49-1.27a3.31 3.31 0 0 0-1.64-.74V3.43A3.42 3.42 0 0 0 226.74 0H201.2a3.42 3.42 0 0 0-3.43 3.43v15.93a7 7 0 0 0-2.38-1.56 5.53 5.53 0 0 0-5.65 1.2 4.09 4.09 0 0 0-1 4.54 19.2 19.2 0 0 1 1 3.13 35.56 35.56 0 0 1 .67 14.15l-.23 1.18c-1 5.66-2 10.95-.3 15a18.21 18.21 0 0 0 5.12 6.81l.15.15a1.06 1.06 0 0 1 .3 1.19l-1.29 7.38a1.58 1.58 0 0 0 1.56 1.85h18.84a1.58 1.58 0 0 0 1.47-1l.79-2a1.07 1.07 0 0 1 .82-.67 8.32 8.32 0 0 0 4.69-2.61c2.31-2.38 4.39-6.63 5.21-8.41a3.77 3.77 0 0 0 1 .15 3.42 3.42 0 0 0 2.68-1.27l1.56-1.86a3.65 3.65 0 0 0 .82-2.61 3.31 3.31 0 0 0-1.27-2.38l-.15-.15 1.71-2a3.48 3.48 0 0 0-.45-5l-1.27-1 1.64-2zm-5.66-15.71a3.84 3.84 0 0 0-1.27 1l-2.83 3.35a3.43 3.43 0 0 0-.82 2.61 3.36 3.36 0 0 0 1.27 2.53l1.49 1.23a.07.07 0 0 1 .07.07l-1.94 2.31a3.65 3.65 0 0 0-.82 2.61v.15a3.31 3.31 0 0 0 1.27 2.38l1.19 1-1.56 1.92a3.09 3.09 0 0 0-.65 1.15 1.64 1.64 0 0 1-1.56 1.22h-20.56a1.58 1.58 0 0 1-1.58-1.58v-38a1.58 1.58 0 0 1 1.58-1.58h25.13a1.58 1.58 0 0 1 1.58 1.58zm-28.3 25.69h24a4.82 4.82 0 0 0 .6.67l1.19 1-.3.37a3.58 3.58 0 0 0-.82 2.53v.22a4.55 4.55 0 0 0 .22 1H201.2a1.25 1.25 0 0 1-1.27-1.27l-.07-4.54zM232 29.41a1.34 1.34 0 0 1 .15 1.94l-2.83 3.35-.07.07a1.56 1.56 0 0 1-.45.3c-.07 0-.07 0-.15.07l-.67-.07a2.64 2.64 0 0 1-.67-.3l-1.49-1.27a1.56 1.56 0 0 1-.52-1 1.43 1.43 0 0 1 .3-.89l2.83-3.35a1.29 1.29 0 0 1 .82-.45h.22a1.82 1.82 0 0 1 .89.3zM201.2 2.16h25.69a1.25 1.25 0 0 1 1.27 1.27V6h-28.3V3.43a1.32 1.32 0 0 1 1.34-1.27zm19.51 64.56a6.5 6.5 0 0 1-3.43 2 3.18 3.18 0 0 0-2.53 2l-.7 1.27h-15.73a1.58 1.58 0 0 1-1.56-1.85l.72-4.19a3.34 3.34 0 0 0-.82-3.57l-.15-.15a16.59 16.59 0 0 1-4.62-6.11c-1.49-3.43-.52-8.49.45-13.77l.22-1.19a38.56 38.56 0 0 0-.67-15 22.1 22.1 0 0 0-1.12-3.35 2 2 0 0 1 .45-2.23 3.2 3.2 0 0 1 3.28-.74 5.23 5.23 0 0 1 3.2 4.32v31.91a3.42 3.42 0 0 0 3.43 3.43h21.54a1.58 1.58 0 0 1 1.33 2.35 24.23 24.23 0 0 1-3.29 4.87zm10.35-11.32l-1.56 1.86a1.48 1.48 0 0 1-1.19.52l-.6-.37c-.07-.07-.15-.07-.22-.15l-.37-.3a1.56 1.56 0 0 1-.52-1 2.12 2.12 0 0 1 .3-.89l.74-.89h.89c.22 0 .37-.07.6-.07a.26.26 0 0 0 .15-.07c.15 0 .22-.07.3-.07s.15-.07.22-.07a.26.26 0 0 0 .15-.07c.15-.07.3-.22.45-.3s.07-.07.15-.07l.15-.15.15.15a1.56 1.56 0 0 1 .52 1 1 1 0 0 1-.31.94zm1.12-7.15l-1.94 2.31-.89 1a.68.68 0 0 1-.45.3l-.07.07a.23.23 0 0 0-.15.07c-.07 0-.15.07-.22.07l-.67-.3a1.63 1.63 0 0 1-.37-.22l-1.49-1.27a1.56 1.56 0 0 1-.52-1 1.43 1.43 0 0 1 .3-.89l2-2.38h.89c.22 0 .37-.07.52-.07h.15c.07 0 .15-.07.22-.07a2092134889755 2092134889755 0 0 0 .3-.15 1.34 1.34 0 0 0 .52-.37l.15-.15c.07-.07.15-.07.22-.15l1.32 1.19a1.37 1.37 0 0 1 .18 2.01zm0-8l-1.94 2.31-.89 1a3.15 3.15 0 0 1-.52.37l-.22.07h-.22l-.67-.22a1.63 1.63 0 0 1-.37-.22l-1.49-1.27a1.56 1.56 0 0 1-.52-1 2.12 2.12 0 0 1 .3-.89l2.61-3.05a.94.94 0 0 0 .45-.07h.22l.67-.22a4.42 4.42 0 0 0 .6-.3c.07.07.15.07.3.15L232 38.2a1.37 1.37 0 0 1 .18 2.01z"/><path d="M210.43 3.43h7.15v1.41h-7.15zM213.93 52.27a1.79 1.79 0 1 0 1.79 1.79 1.81 1.81 0 0 0-1.79-1.79z"/></g></g></svg>